<?xml version="1.0" encoding="UTF-8"?>
<svg xmlns="http://www.w3.org/2000/svg" xmlns:xlink="http://www.w3.org/1999/xlink" viewBox="0 0 512 512">
  <defs>
    <style>
      .cls-1 {
        fill: url(#_Безымянный_градиент_634-3);
      }

      .cls-2 {
        fill: url(#_Безымянный_градиент_634-5);
      }

      .cls-3 {
        fill: url(#_Безымянный_градиент_634);
      }

      .cls-4 {
        fill: url(#_Безымянный_градиент_634-2);
      }

      .cls-5 {
        fill: url(#_Безымянный_градиент_634-4);
      }
    </style>
    <linearGradient id="_Безымянный_градиент_634" data-name="Безымянный градиент 634" x1="19.1" y1="273.89" x2="329.36" y2="83.9" gradientUnits="userSpaceOnUse">
      <stop offset="0" stop-color="#00f0f9"/>
      <stop offset=".05" stop-color="#05d8f6"/>
      <stop offset=".17" stop-color="#149df1"/>
      <stop offset=".34" stop-color="#2c3fe9"/>
      <stop offset=".44" stop-color="#3c00e4"/>
      <stop offset=".63" stop-color="#800eb0"/>
      <stop offset=".8" stop-color="#b81a87"/>
      <stop offset=".93" stop-color="#da216e"/>
      <stop offset="1" stop-color="#e72465"/>
    </linearGradient>
    <linearGradient id="_Безымянный_градиент_634-2" data-name="Безымянный градиент 634" x1="98.69" y1="403.87" x2="408.96" y2="213.88" xlink:href="#_Безымянный_градиент_634"/>
    <linearGradient id="_Безымянный_градиент_634-3" data-name="Безымянный градиент 634" x1="142.69" y1="475.72" x2="452.95" y2="285.73" xlink:href="#_Безымянный_градиент_634"/>
    <linearGradient id="_Безымянный_градиент_634-4" data-name="Безымянный градиент 634" x1="26.78" y1="286.43" x2="337.04" y2="96.45" xlink:href="#_Безымянный_градиент_634"/>
    <linearGradient id="_Безымянный_градиент_634-5" data-name="Безымянный градиент 634" x1="147.39" y1="483.39" x2="457.65" y2="293.41" xlink:href="#_Безымянный_градиент_634"/>
  </defs>
  <g id="top_x5F_left">
    <path class="cls-3" d="M86.87,309.13c1.3-1.84,59.03-31.36,55.55-34.93l-.27-143.12c0-3.6-3.88-5.85-7.02-4.09l-52.94,29.9c-1.48.83-2.39,2.4-2.39,4.09v144.06c0,3.62,3.93,5.89,7.06,4.07Z"/>
  </g>
  <g id="top_x5F_right">
    <path class="cls-4" d="M431.25,158.84l-53.73-32.03c-3.13-1.87-7.11.39-7.11,4.04v143.62c0,1.68.9,3.23,2.35,4.07l53.73,30.99c3.14,1.81,7.05-.45,7.05-4.07v-142.58c0-1.66-.87-3.19-2.29-4.04Z"/>
  </g>
  <g id="center_x5F_down">
    <path class="cls-1" d="M325.12,374.32l-65.32-38.6c.17-5.64-72.83,40.5-74.04,40.14-4.82-1.5-1.36,53.68-2.35,55.49,0,5.42,5.71,8.9,10.55,6.46,82.12-37.51,43.8-37.44,126.27-1.11,4.84,2.37,10.51-1.01,10.51-6.4v-46.49c0-3.95-2.18-7.55-5.62-9.49Z"/>
  </g>
  <g id="center_x5F_top">
    <path class="cls-5" d="M197.58,238.55c77.79-41.44,41.02-41.16,117.26,1.02,3.68,3.1,9.76.67,8.44-4.53,0,0-61.9-219.37-61.9-219.37-1.29-4.57-7.76-4.57-9.05,0l-61.58,217.5c-1.14,4.03,3.17,7.43,6.83,5.38Z"/>
  </g>
  <g id="center_x5F_big">
    <path class="cls-2" d="M419.63,329.14l-157.91-91.8c-2.37-1.84-5.81-1.49-8.45-.05l-166.51,94.63c-5.12,2.52-8.31,7.79-8.31,13.49v145.68c0,5.67,6.24,9.4,11.05,6.4l44.5-26.02c4.63-2.82,7.43-7.88,7.43-13.31,0,0-.11-76.43-.11-76.43-.88-5.61,1.52-11.27,6.46-14.2l105.21-60.12c1.45-.83,3.24-.83,4.68.01l101.83,58.77c5.9,3.53,9.47,9.92,9.51,16.79l.42,81.47c0,1.73.97,3.31,2.5,4.12,18.04,9.58,35.59,20.08,53.14,30.52,3.13,1.89,7.13-.37,7.13-4.03v-144.34c0-8.92-4.74-17.27-12.56-21.56Z"/>
  </g>
</svg>